<svg width="154" height="40" viewBox="0 0 154 40" fill="none" xmlns="http://www.w3.org/2000/svg">
<g clip-path="url(#clip0_12301_2361)">
<path d="M37.3715 9.85742C31.8184 10.8328 26.4048 12.4753 21.2495 14.7488C21.2495 14.7488 18.5118 16.0035 17.4449 17.381C17.4449 17.381 16.7131 18.5304 18.3266 18.5084C20.0283 18.5084 24.1282 18.5523 25.658 18.8287C25.658 18.8287 29.4714 19.3156 27.2715 22.2066C27.1229 22.4113 26.9594 22.6049 26.7822 22.7857L26.7117 22.8603L26.6499 22.9261C24.4016 25.0055 17.3391 30.7085 4.99072 33.1739C8.28648 36.9148 12.8665 39.2971 17.8345 39.8547C22.8024 40.4122 27.8006 39.1048 31.8509 36.1883C35.9011 33.2718 38.7119 28.9562 39.7329 24.0862C40.754 19.2161 39.9119 14.1422 37.3715 9.85742Z" fill="white"/>
<path d="M21.9415 22.812C21.9415 22.812 24.3839 21.5267 23.2024 21.0573C22.3926 20.9373 21.574 20.8874 20.7556 20.9081C19.4331 20.9432 17.1274 20.8423 17.1274 20.8423C17.1274 20.8423 13.8342 20.7326 12.8952 19.206C12.8952 19.206 12.0135 17.8899 13.9929 16.0913C13.9929 16.0913 19.5874 10.2479 33.8578 5.46614C30.5078 2.32465 26.1747 0.424101 21.5843 0.0828757C16.994 -0.258349 12.4252 0.980472 8.6433 3.59182C4.86143 6.20317 2.0962 10.0284 0.810821 14.4268C-0.474557 18.8252 -0.202002 23.5295 1.58283 27.7517C4.34699 27.8131 14.059 27.6377 21.9415 22.812Z" fill="white"/>
<path d="M59.4671 19.4034C59.0706 18.9211 58.5951 18.5088 58.0608 18.1839C58.3393 17.8939 58.5834 17.573 58.7882 17.2275C59.0436 16.7836 59.2365 16.3068 59.3613 15.8105C59.486 15.3052 59.5482 14.7866 59.5464 14.2663C59.5555 13.4682 59.4211 12.6748 59.1497 11.9237C58.8831 11.1995 58.4498 10.5474 57.8844 10.0198C57.2831 9.47685 56.57 9.07112 55.7948 8.83093C54.8076 8.54308 53.7811 8.41133 52.7529 8.44049H48.5956C48.1911 8.44644 47.799 8.58008 47.4758 8.82215C47.2403 8.99899 47.0531 9.23181 46.9314 9.4993C46.8097 9.76678 46.7574 10.0604 46.7793 10.3532V27.7254C46.7574 28.0182 46.8097 28.3118 46.9314 28.5793C47.0531 28.8468 47.2403 29.0796 47.4758 29.2565C47.799 29.4985 48.1911 29.6322 48.5956 29.6381H53.6037C54.2872 29.6459 54.9696 29.5842 55.6405 29.4539C56.2252 29.3366 56.7936 29.1496 57.3333 28.8967C57.8538 28.6564 58.3388 28.3465 58.7749 27.9755C59.2054 27.6065 59.577 27.1746 59.8771 26.6945C60.183 26.2045 60.4147 25.6724 60.5648 25.1152C60.7272 24.516 60.8073 23.8977 60.8029 23.2771C60.8096 22.5497 60.6887 21.8267 60.4458 21.1406C60.222 20.51 59.891 19.9224 59.4671 19.4034ZM53.7845 26.0672H50.5662V20.5089H53.0659C53.6986 20.4935 54.3305 20.5643 54.9439 20.7195C55.3453 20.8293 55.7202 21.0189 56.046 21.2766C56.319 21.5047 56.5323 21.7952 56.6677 22.1233C56.8318 22.5423 56.9098 22.9899 56.8969 23.4394C56.9073 23.8357 56.8306 24.2295 56.6721 24.5932C56.5304 24.9015 56.321 25.1744 56.0593 25.3916C55.7844 25.6142 55.4684 25.7811 55.1291 25.8829C54.6937 26.0155 54.2397 26.0777 53.7845 26.0672ZM55.4685 15.4289C55.3768 15.7204 55.2269 15.9905 55.0277 16.2229C54.8167 16.4545 54.556 16.6359 54.265 16.7537C53.8258 16.911 53.3603 16.9825 52.8939 16.9643H50.5574V12.0158H52.5942C53.1516 11.9959 53.7089 12.0595 54.2474 12.2045C54.5479 12.287 54.8255 12.4371 55.0585 12.6432C55.2579 12.8264 55.4092 13.0553 55.4994 13.31C55.7081 13.9965 55.7081 14.7292 55.4994 15.4157L55.4685 15.4289Z" fill="white"/>
<path d="M74.9456 10.8708C74.5101 10.3241 73.9801 9.85913 73.3805 9.49768C72.8256 9.1516 72.2183 8.89681 71.5819 8.74313C71.1135 8.62856 70.6377 8.54648 70.1579 8.49746C69.7611 8.45798 69.3511 8.44043 68.9323 8.44043H64.9999C64.5953 8.44577 64.203 8.57948 63.8801 8.82209C63.6446 8.99892 63.4574 9.23175 63.3357 9.49923C63.214 9.76672 63.1617 10.0603 63.1836 10.3531V28.3659C63.1834 28.6175 63.2578 28.8636 63.3973 29.0735C63.5369 29.2834 63.7355 29.4477 63.9683 29.5459C64.1327 29.6122 64.3043 29.6593 64.4797 29.6863C64.6767 29.7158 64.8756 29.7304 65.0748 29.7302C65.2801 29.7319 65.4852 29.7157 65.6876 29.6819C65.8568 29.6552 66.0225 29.6096 66.1814 29.5459C66.4164 29.4503 66.6173 29.2868 66.7579 29.0764C66.8986 28.866 66.9726 28.6185 66.9705 28.3659V21.9785H68.5003C69.6104 22.0052 70.7168 21.8419 71.7714 21.4959C72.6681 21.1795 73.4903 20.6838 74.1873 20.0395C74.8567 19.4037 75.3827 18.6336 75.7303 17.7802C76.0954 16.8693 76.2781 15.8962 76.2682 14.9155C76.2692 14.1703 76.1502 13.4297 75.9155 12.7221C75.7023 12.0537 75.3742 11.4273 74.9456 10.8708ZM68.5973 18.4251H66.9485V12.0158H68.7119C69.1547 12.016 69.5968 12.0497 70.0345 12.1167C70.4296 12.1759 70.8088 12.3131 71.1498 12.5203C71.5116 12.7545 71.8062 13.0779 72.0051 13.4591C72.2662 13.9658 72.3922 14.5307 72.371 15.0998C72.3772 15.5714 72.2949 16.04 72.1285 16.4817C71.9888 16.8642 71.7643 17.2106 71.4716 17.495C71.1571 17.7897 70.7849 18.0167 70.3783 18.1619C69.8049 18.3535 69.2019 18.4426 68.5973 18.4251Z" fill="white"/>
<path d="M94.0478 10.2651C93.7793 10.0178 93.4835 9.80143 93.1661 9.62026C92.7002 9.34662 92.2085 9.11888 91.6981 8.94029C91.1039 8.7238 90.4937 8.55366 89.8729 8.43141C89.1562 8.28674 88.4265 8.21472 87.6951 8.21645C86.2623 8.20096 84.841 8.47249 83.5158 9.01487C82.2753 9.53268 81.1579 10.3039 80.2358 11.2785C79.2981 12.2938 78.5767 13.4877 78.1153 14.7881C77.6099 16.2105 77.3592 17.7102 77.3747 19.2189C77.3618 20.6625 77.5928 22.098 78.058 23.4654C78.4933 24.7228 79.1801 25.8794 80.0771 26.8653C80.9869 27.8406 82.1026 28.6032 83.3439 29.0982C84.7103 29.6349 86.169 29.9001 87.6378 29.8791C88.1598 29.8785 88.6812 29.8434 89.1984 29.7738C89.7231 29.704 90.2429 29.6015 90.7547 29.4667C91.276 29.3314 91.7872 29.1599 92.2844 28.9535C92.6883 28.7894 93.0814 28.6004 93.4615 28.3875C93.8627 28.1842 94.1862 27.8561 94.3829 27.4531C94.5196 27.136 94.5872 26.7936 94.5813 26.4485V19.3022C94.586 19.0234 94.5366 18.7464 94.4358 18.4862C94.3318 18.2204 94.1619 17.985 93.942 17.8019C93.7612 17.6536 93.5531 17.5419 93.3292 17.4729C93.1447 17.4179 92.9532 17.3899 92.7605 17.3895H86.8487C86.6012 17.3869 86.3576 17.4505 86.1433 17.5738C85.9412 17.6901 85.7727 17.8563 85.654 18.0563C85.5446 18.2339 85.4698 18.4303 85.4335 18.6354C85.4021 18.8165 85.3873 19 85.3894 19.1838C85.375 19.5588 85.4602 19.931 85.6363 20.2629C85.7572 20.4759 85.9337 20.6524 86.1471 20.7736C86.3605 20.8949 86.603 20.9564 86.8487 20.9517H90.8164V25.6106C90.4206 25.7974 90.0071 25.9443 89.582 26.0493C88.1106 26.428 86.5572 26.3406 85.1382 25.7993C84.3836 25.4959 83.7049 25.0317 83.1499 24.4393C82.5631 23.7874 82.1134 23.0252 81.8273 22.1976C81.4831 21.1865 81.316 20.124 81.3336 19.0565C81.3245 18.0555 81.4732 17.0593 81.7744 16.1041C82.0324 15.2718 82.4501 14.4971 83.0044 13.8229C83.5331 13.1964 84.1939 12.6931 84.9398 12.3489C85.7703 11.9759 86.6739 11.7916 87.5849 11.8093C88.2741 11.7944 88.9618 11.8802 89.6261 12.0638C90.1436 12.2135 90.6467 12.4088 91.1294 12.6472C91.4663 12.8117 91.7905 13.0009 92.0993 13.2132C92.4257 13.496 92.8358 13.6654 93.2675 13.6957C93.5372 13.6951 93.7997 13.6091 94.017 13.4501C94.2092 13.3084 94.3611 13.1194 94.4578 12.9017C94.5329 12.7382 94.5862 12.5656 94.6165 12.3884C94.6476 12.2132 94.6624 12.0355 94.6606 11.8576C94.6714 11.5599 94.628 11.2627 94.5328 10.9802C94.4238 10.7104 94.2586 10.4666 94.0478 10.2651Z" fill="white"/>
<path d="M106.917 16.5653C106.977 16.4032 107.014 16.2333 107.027 16.0608C107.035 15.9044 107.035 15.7477 107.027 15.5914C107.027 15.4203 107.027 15.2843 107.027 15.1527C107.02 15.0121 107 14.8724 106.965 14.7359C106.934 14.6113 106.885 14.4916 106.82 14.3806C106.723 14.2164 106.592 14.0744 106.436 13.9638C106.258 13.8377 106.062 13.74 105.854 13.6743C105.64 13.6027 105.422 13.5441 105.202 13.4988C104.985 13.4538 104.765 13.4216 104.545 13.4023C104.342 13.4023 104.166 13.376 104.011 13.376C103.637 13.3757 103.264 13.4199 102.9 13.5076C102.486 13.62 102.093 13.7993 101.736 14.0384C101.533 14.1704 101.34 14.317 101.159 14.4771C101.142 14.4213 101.119 14.367 101.093 14.3148C100.977 14.0915 100.8 13.9058 100.581 13.7796C100.391 13.6742 100.181 13.6071 99.9642 13.5822C99.5995 13.5405 99.2312 13.5405 98.8665 13.5822C98.6704 13.6086 98.4798 13.6664 98.3022 13.7533C98.054 13.8752 97.8504 14.0716 97.7203 14.3148C97.6276 14.5015 97.5807 14.7075 97.5836 14.9158V28.3661C97.5814 28.5729 97.6283 28.7773 97.7203 28.9627C97.8537 29.2275 98.0793 29.4349 98.3551 29.5462C98.5145 29.6094 98.68 29.6565 98.8489 29.6866C99.0458 29.7163 99.2448 29.7309 99.444 29.7304C99.6493 29.7321 99.8544 29.716 100.057 29.6822C100.233 29.654 100.405 29.6039 100.568 29.533C100.805 29.4282 101.003 29.2536 101.137 29.0329C101.259 28.8319 101.323 28.6011 101.322 28.3661V19.544C101.626 19.0702 101.908 18.6666 102.164 18.3157C102.391 17.9994 102.648 17.7055 102.931 17.4383C103.095 17.2819 103.283 17.1517 103.487 17.0522C103.74 16.9511 104.02 16.9341 104.285 17.004C104.452 17.0434 104.602 17.0873 104.725 17.1268L105.091 17.254C105.335 17.3698 105.607 17.4112 105.874 17.3729C106.14 17.3346 106.39 17.2185 106.59 17.0391C106.731 16.9056 106.842 16.7442 106.917 16.5653Z" fill="white"/>
<path d="M119.64 15.6353C118.998 14.8896 118.184 14.31 117.268 13.9464C116.266 13.5526 115.197 13.3603 114.12 13.3805C112.989 13.3583 111.865 13.5735 110.823 14.0122C109.885 14.4212 109.056 15.0397 108.398 15.8196C107.746 16.6105 107.26 17.5234 106.969 18.5044C106.664 19.5579 106.516 20.6501 106.529 21.7463C106.516 22.8512 106.664 23.9522 106.969 25.0146C107.241 25.9778 107.716 26.8723 108.363 27.638C109.003 28.3788 109.809 28.9589 110.717 29.3313C111.718 29.7301 112.79 29.9255 113.869 29.906C114.999 29.9249 116.12 29.7051 117.158 29.2611C118.094 28.8476 118.923 28.2246 119.578 27.4406C120.228 26.6477 120.715 25.7355 121.011 24.7558C121.318 23.7012 121.466 22.6073 121.452 21.5094C121.466 20.4073 121.317 19.3091 121.011 18.25C120.741 17.2933 120.274 16.4029 119.64 15.6353ZM113.975 26.3614C113.375 26.3867 112.777 26.2678 112.233 26.0148C111.81 25.8013 111.45 25.4824 111.188 25.0892C110.895 24.6309 110.69 24.1221 110.584 23.5888C110.446 22.9296 110.378 22.2576 110.382 21.584C110.376 20.9085 110.456 20.2349 110.62 19.5792C110.748 19.0504 110.975 18.5503 111.29 18.1052C111.574 17.7288 111.946 17.4275 112.374 17.2278C112.894 16.9926 113.461 16.8785 114.032 16.8944C114.631 16.8699 115.228 16.9919 115.769 17.2497C116.195 17.4614 116.56 17.7787 116.827 18.171C117.122 18.6306 117.328 19.1409 117.435 19.6757C117.574 20.3276 117.642 20.9923 117.638 21.6586C117.644 22.3385 117.564 23.0165 117.4 23.6766C117.274 24.2034 117.046 24.7009 116.73 25.1418C116.445 25.5174 116.073 25.8185 115.645 26.0192C115.122 26.2594 114.551 26.3765 113.975 26.3614Z" fill="white"/>
<path d="M135.673 13.757C135.484 13.6603 135.277 13.5993 135.065 13.5772C134.693 13.5355 134.317 13.5355 133.945 13.5772C133.74 13.6004 133.54 13.6582 133.355 13.7483C133.106 13.8643 132.904 14.0606 132.781 14.3054C132.685 14.4927 132.635 14.7003 132.636 14.9108V24.2111C132.12 24.8464 131.528 25.4166 130.873 25.9088C130.448 26.2441 129.928 26.4362 129.387 26.4572C129.052 26.4656 128.72 26.3965 128.417 26.2554C128.163 26.1298 127.946 25.9409 127.787 25.707C127.578 25.3958 127.429 25.0494 127.346 24.6849C127.222 24.092 127.168 23.4871 127.183 22.8818V14.9152C127.183 14.6774 127.118 14.4441 126.993 14.2412C126.869 14.0383 126.69 13.8737 126.477 13.7658C126.288 13.6676 126.081 13.6051 125.869 13.5816C125.497 13.5399 125.121 13.5399 124.749 13.5816C124.544 13.6047 124.344 13.6626 124.158 13.7526C123.909 13.8718 123.706 14.0691 123.581 14.3142C123.487 14.5005 123.438 14.7065 123.44 14.9152V23.0398C123.427 23.9378 123.518 24.8344 123.713 25.7114C123.892 26.4746 124.222 27.1948 124.683 27.8303C125.161 28.4798 125.794 29.0001 126.526 29.3438C127.354 29.7239 128.259 29.9114 129.171 29.8921C130.106 29.8819 131.025 29.6439 131.847 29.199C132.154 29.0394 132.448 28.8576 132.729 28.655C132.752 28.7617 132.789 28.8648 132.839 28.9621C132.959 29.2055 133.158 29.4017 133.403 29.5193C133.567 29.5999 133.742 29.6546 133.923 29.6816C134.124 29.716 134.328 29.7321 134.532 29.7298C134.725 29.7313 134.919 29.7152 135.109 29.6816C135.274 29.6529 135.435 29.6073 135.59 29.5456C135.867 29.4317 136.093 29.2211 136.225 28.9533C136.317 28.7696 136.366 28.5668 136.366 28.3611V14.9152C136.366 14.6781 136.3 14.4455 136.177 14.2428C136.053 14.0401 135.876 13.8751 135.665 13.7658L135.673 13.757Z" fill="white"/>
<path d="M152.858 18.4732C152.658 17.5544 152.291 16.68 151.773 15.8937C151.26 15.1239 150.563 14.4924 149.745 14.0556C148.356 13.382 146.776 13.2054 145.271 13.5555C144.782 13.6803 144.311 13.866 143.869 14.1083C143.563 14.2829 143.269 14.4763 142.987 14.6873C142.959 14.5237 142.903 14.3662 142.819 14.2223C142.676 13.9937 142.465 13.8145 142.216 13.709C142.056 13.6446 141.888 13.6004 141.717 13.5774C141.372 13.5313 141.022 13.5313 140.677 13.5774C140.497 13.6016 140.322 13.6518 140.157 13.7266C139.894 13.8401 139.68 14.042 139.553 14.2969C139.458 14.4878 139.41 14.6982 139.412 14.9111V33.7047C139.412 33.9131 139.46 34.1187 139.553 34.3057C139.679 34.5519 139.883 34.7494 140.135 34.8672C140.319 34.9558 140.517 35.0136 140.721 35.0383C140.904 35.0588 141.088 35.069 141.272 35.069C141.462 35.0694 141.652 35.0591 141.841 35.0383C142.053 35.0147 142.26 34.9523 142.449 34.854C142.662 34.7467 142.841 34.5822 142.965 34.379C143.089 34.1759 143.153 33.9423 143.15 33.7047V28.879C143.353 29.015 143.56 29.1379 143.763 29.2475C144.16 29.4592 144.582 29.6213 145.019 29.7301C145.463 29.8339 145.917 29.8854 146.373 29.8836C147.382 29.8993 148.382 29.6847 149.296 29.2563C150.154 28.8423 150.902 28.232 151.478 27.4752C152.076 26.6721 152.513 25.7621 152.765 24.7948C153.054 23.6952 153.193 22.5621 153.18 21.4256C153.181 20.4328 153.073 19.4428 152.858 18.4732ZM147.687 26.0933C147.322 26.3231 146.896 26.4378 146.465 26.4224C145.89 26.4195 145.331 26.2301 144.874 25.8828C144.233 25.4093 143.652 24.8614 143.141 24.2508V19.0874C143.426 18.7427 143.733 18.416 144.058 18.1091C144.362 17.8215 144.691 17.5616 145.041 17.3326C145.288 17.171 145.557 17.0454 145.839 16.9598C146.093 16.8862 146.356 16.8493 146.62 16.8501C147.051 16.8256 147.48 16.936 147.845 17.1659C148.196 17.4109 148.48 17.7398 148.67 18.1223C148.922 18.6188 149.095 19.1517 149.181 19.7016C149.292 20.367 149.347 21.0406 149.344 21.7152C149.343 22.3343 149.278 22.9518 149.15 23.5577C149.039 24.0996 148.845 24.6217 148.577 25.1063C148.363 25.5006 148.057 25.8388 147.687 26.0933Z" fill="white"/>
</g>
<defs>
<clipPath id="clip0_12301_2361">
<rect width="153.171" height="40" fill="white"/>
</clipPath>
</defs>
</svg>
