<svg width="22" height="27" viewBox="0 0 22 27" fill="none" xmlns="http://www.w3.org/2000/svg"><path d="M13.9579 19.2226L11.8563 16.3643L12.1925 18.8862C12.2204 18.9982 12.2204 19.1104 12.1645 19.2224L10.1469 24.5746C9.8666 25.2752 10.119 26.0878 10.7634 26.4521C10.9035 26.5362 11.0437 26.5642 11.1837 26.5923C11.8562 26.7325 12.5568 26.396 12.8369 25.7516L14.3221 22.2208L14.0699 19.4465C14.042 19.3625 14.014 19.2784 13.9579 19.2223L13.9579 19.2226Z" fill="#444444"></path><path d="M20.8512 10.2837L18.245 9.94744C18.245 9.94744 16.5917 7.56544 16.3675 7.2572C16.1712 7.00504 15.835 6.44465 15.4427 6.16433C14.9103 5.79998 14.2658 5.66002 13.6493 5.77202C13.3131 5.82812 12.9488 6.05233 12.7525 6.19228C12.5563 6.33243 9.50186 8.54611 9.50186 8.54611L8.82927 9.05041C8.54897 9.24666 8.38087 9.55471 8.35292 9.89113L8.07261 13.1136C8.07261 13.2256 8.07261 13.3378 8.10056 13.4498C8.15666 13.674 8.26867 13.8701 8.40882 14.0102L7.25985 16.3922L4.90603 15.2714C4.31746 14.9911 3.6169 15.2435 3.30865 15.8318L0.114502 22.4451C-0.165802 23.0337 0.0865496 23.7342 0.674899 24.0143L3.28088 25.2752C3.28088 26.0038 3.89737 26.6203 4.6259 26.6203C5.35443 26.6203 5.97092 26.0317 5.97092 25.2752C5.97092 25.1912 5.94297 25.1071 5.91483 24.9949L9.02531 18.5778C9.30561 17.9893 9.05326 17.2887 8.46491 17.0086L8.10056 16.8405L9.24953 14.4585H9.33358C9.97804 14.4585 10.4825 13.926 10.5384 13.2816L10.7906 10.6474L11.7715 9.97484L11.4071 13.5337C11.3792 13.8981 11.4632 14.2623 11.6874 14.5425L14.7418 18.7179C14.882 18.9142 14.966 19.1382 14.994 19.3624L15.4709 25.0789C15.527 25.8075 15.9752 26.508 16.7039 26.6202C16.8441 26.6482 16.9843 26.6482 17.1242 26.6202C17.7968 26.5082 18.4133 25.9476 18.3572 25.2471L18.049 18.4657C18.049 18.2694 17.9929 18.1013 17.9088 17.9332C17.9088 17.9332 16.0593 14.4024 15.9473 14.2062C15.8633 14.0381 15.8912 13.8139 15.8912 13.6737C15.8912 13.5056 16.0875 11.1237 16.0875 11.1237L16.5638 11.8242C16.7601 12.1045 17.0681 12.3006 17.4045 12.3285L20.627 12.7769C20.739 12.8049 20.8512 12.8049 20.9632 12.7769C21.5236 12.6929 21.972 12.2165 22 11.628C22 10.8996 21.4956 10.3677 20.8512 10.2837ZM1.90805 23.1179C1.68384 23.0059 1.59979 22.7535 1.7118 22.5575L3.02885 19.8114C3.14085 19.5872 3.3932 19.5031 3.58925 19.6151C3.81345 19.7271 3.8975 19.9795 3.7855 20.1755L2.46845 22.9216C2.38439 23.1179 2.13224 23.2019 1.90805 23.1179ZM4.5983 25.78C4.31799 25.78 4.09399 25.5558 4.09399 25.2757C4.09399 24.9954 4.3182 24.7714 4.5983 24.7714C4.8786 24.7714 5.1026 24.9956 5.1026 25.2757C5.13074 25.5558 4.87859 25.78 4.5983 25.78Z" fill="#444444"></path><path d="M16.8136 2.17546C17.0206 3.56837 16.0593 4.8655 14.6662 5.07252C13.2733 5.27952 11.9761 4.31821 11.7691 2.9251C11.5621 1.53219 12.5234 0.235057 13.9165 0.0280421C15.3095 -0.178958 16.6066 0.782344 16.8136 2.17546Z" fill="#444444"></path></svg>