<svg width="24" height="15" viewBox="0 0 24 15" fill="none" xmlns="http://www.w3.org/2000/svg"><path d="M15.507 4.67631L18.6042 3.22406C19.4558 2.94282 20.4519 2.92065 21.4003 3.1813C22.4128 3.45957 22.859 3.90335 22.967 4.16892L22.967 4.169C23.0099 4.27449 23.0089 4.3688 22.9759 4.449C22.9453 4.5234 22.837 4.70718 22.4354 4.89367L22.415 4.90316L22.395 4.91356L5.85051 13.5225L1.0001 8.06773C0.99945 8.0512 1.00194 8.03451 1.00765 8.01838C1.01395 8.0006 1.02425 7.98335 1.03866 7.96805C1.05311 7.95272 1.07142 7.93968 1.09287 7.93051L1.09304 7.93044L2.03392 7.52799C2.03401 7.52795 2.03409 7.52792 2.03418 7.52788C2.27012 7.42726 2.53129 7.39572 2.78584 7.43768C3.04031 7.47963 3.27548 7.59291 3.46362 7.76207C3.46372 7.76216 3.46381 7.76224 3.4639 7.76232L5.19478 9.32254L5.70873 9.78582L6.32343 9.46815L8.50992 8.33819L9.98003 7.57845L8.6238 6.63025L2.92358 2.64496L2.92354 2.64493C2.90371 2.63107 2.88845 2.61379 2.87799 2.59517C2.86756 2.57659 2.86192 2.55673 2.86077 2.53701C2.85963 2.51729 2.86295 2.49725 2.87094 2.47815C2.87893 2.45903 2.89168 2.44075 2.90921 2.42522C2.90923 2.4252 2.90926 2.42518 2.90928 2.42516L4.14028 1.33657L4.14029 1.33657L4.14301 1.33414C4.32453 1.17244 4.5499 1.06307 4.7939 1.0202C5.03795 0.977334 5.28914 1.00304 5.51839 1.09391L5.51838 1.09392L5.52174 1.09524L14.7173 4.70185L15.1176 4.85887L15.507 4.67631Z" stroke="#444444" stroke-width="2"></path></svg>