<svg width="22" height="22" viewBox="0 0 22 22" fill="none" xmlns="http://www.w3.org/2000/svg"><path d="M5.40301 19.0907L0.902678 12.056C-0.172623 10.3751 0.228784 8.18819 1.79672 7.18513L11.7851 0.795282C12.7142 0.200877 13.9039 0.141657 14.9443 0.616609L21.1285 3.50347C21.3641 3.61593 21.5633 3.92721 21.5666 4.18827L21.5952 11.0131C21.5903 12.1567 21.0378 13.212 20.1087 13.8064L10.1203 20.1963C8.59224 21.2616 6.47831 20.7715 5.40301 19.0907ZM20.206 4.62L14.493 1.95806C13.826 1.68293 13.1042 1.70601 12.5816 2.04037L2.59324 8.43022C1.66409 9.02462 1.4269 10.3169 2.06411 11.313L6.56445 18.3477C7.20166 19.3437 8.47433 19.6701 9.40348 19.0757L19.3918 12.6858C19.9145 12.3515 20.238 11.7059 20.2678 10.9849L20.206 4.62Z" fill="#444444"></path><path fill-rule="evenodd" clip-rule="evenodd" d="M15.0712 0.344769L21.2577 3.23272C21.4382 3.31886 21.5857 3.46957 21.6874 3.62848C21.789 3.78739 21.864 3.98448 21.8666 4.18444L21.8666 4.18701L21.8952 11.0144C21.8899 12.2526 21.2913 13.406 20.2704 14.0591L10.2869 20.4458C8.60412 21.6147 6.30582 21.0586 5.1503 19.2524L0.649965 12.2176C-0.503849 10.414 -0.0887187 8.03517 1.63505 6.93242L11.6234 0.54257C12.6443 -0.110544 13.9425 -0.170522 15.0689 0.343702L15.0712 0.344769ZM10.1203 20.1963L20.1087 13.8064C21.0378 13.212 21.5903 12.1567 21.5952 11.0131L21.5666 4.18827C21.5633 3.92721 21.3641 3.61593 21.1285 3.50347L14.9443 0.616609C13.9039 0.141657 12.7142 0.200877 11.7851 0.795282L1.79672 7.18513C0.228784 8.18819 -0.172623 10.3751 0.902678 12.056L5.40301 19.0907C6.47831 20.7715 8.59224 21.2616 10.1203 20.1963ZM14.3726 2.23292C13.7766 1.98903 13.1643 2.02374 12.7433 2.29308L2.75491 8.68293C1.9816 9.17764 1.75812 10.2779 2.31683 11.1513L6.81716 18.186C7.37586 19.0594 8.4685 19.3177 9.24181 18.823L19.2302 12.4331C19.651 12.1639 19.9391 11.6229 19.9677 10.9799L19.9079 4.81205L14.3726 2.23292ZM20.206 4.62L14.493 1.95806C13.826 1.68293 13.1042 1.70601 12.5816 2.04037L2.59324 8.43022C1.66409 9.02462 1.4269 10.3169 2.06411 11.313L6.56445 18.3477C7.20166 19.3437 8.47433 19.6701 9.40348 19.0757L19.3918 12.6858C19.9145 12.3515 20.238 11.7059 20.2678 10.9849L20.206 4.62Z" fill="#444444"></path><path d="M6.65135 9.53312C6.55474 9.38211 6.5391 9.25024 6.57222 9.08717C6.63846 8.76104 6.93103 8.57387 7.25489 8.65045L16.0801 10.7371C16.4039 10.8136 16.5972 11.1157 16.5309 11.4418C16.4647 11.7679 16.1721 11.9551 15.8482 11.8785L7.02306 9.7919C6.86113 9.75362 6.74796 9.68414 6.65135 9.53312Z" fill="#444444"></path><path fill-rule="evenodd" clip-rule="evenodd" d="M6.39864 9.69479C6.25511 9.47043 6.23152 9.25741 6.27822 9.02746C6.37818 8.5353 6.83518 8.24294 7.32392 8.3585L16.1491 10.4451C16.6306 10.5589 16.9234 11.0166 16.8249 11.5015C16.725 11.9937 16.268 12.286 15.7792 12.1705L6.95403 10.0839C6.72568 10.0299 6.54217 9.91915 6.39864 9.69479ZM6.57222 9.08717C6.5391 9.25024 6.55474 9.38211 6.65135 9.53312C6.74796 9.68414 6.86113 9.75362 7.02306 9.7919L15.8482 11.8785C16.1721 11.9551 16.4647 11.7679 16.5309 11.4418C16.5972 11.1157 16.4039 10.8136 16.0801 10.7371L7.25489 8.65045C6.93103 8.57387 6.63846 8.76104 6.57222 9.08717Z" fill="#444444"></path><path d="M8.24992 14.9005C7.67533 14.0023 7.87663 12.9056 8.71447 12.3696C9.55231 11.8336 10.6324 12.1106 11.207 13.0088C11.7816 13.907 11.5803 15.0037 10.7425 15.5397C9.90462 16.0757 8.82452 15.7987 8.24992 14.9005Z" fill="#444444"></path><path d="M11.6864 7.43833C11.1191 6.5516 11.3178 5.46885 12.145 4.93969C12.9722 4.41053 14.0385 4.68397 14.6058 5.57071C15.173 6.45744 14.9743 7.54019 14.1471 8.06935C13.32 8.59851 12.2536 8.32507 11.6864 7.43833Z" fill="#444444"></path></svg>