<svg width="22" height="14" viewBox="0 0 22 14" fill="none" xmlns="http://www.w3.org/2000/svg"><path fill-rule="evenodd" clip-rule="evenodd" d="M21.7781 4.33979C21.7781 4.63288 21.6222 4.90396 21.3689 5.05154C20.9074 5.31318 20.5537 5.7303 20.3711 6.22839C20.1882 6.72636 20.1882 7.27316 20.3711 7.77125C20.5537 8.26939 20.9074 8.68633 21.3689 8.94811C21.6222 9.09553 21.7781 9.36659 21.7781 9.65986V13.1766C21.7782 13.3951 21.6914 13.6046 21.5369 13.7589C21.3826 13.9133 21.1731 14.0002 20.9547 14H0.823393C0.604934 14.0002 0.395436 13.9133 0.24115 13.7589C0.0866922 13.6046 -0.000171194 13.395 2.53316e-07 13.1766V9.65986C-0.000175333 9.36677 0.155489 9.09569 0.408676 8.94811C0.870314 8.68647 1.22415 8.26939 1.40698 7.77125C1.58982 7.27311 1.58981 6.72636 1.40698 6.22822C1.22416 5.73008 0.870314 5.31298 0.408676 5.05154C0.155489 4.90394 -0.000171194 4.63288 2.53316e-07 4.33979V0.823393C-0.00017093 0.604934 0.0866922 0.395436 0.24115 0.24115C0.395449 0.0866922 0.604952 -0.00017124 0.823393 2.53452e-07H20.9547C21.1731 -0.000170976 21.3826 0.0866922 21.5369 0.24115C21.6914 0.395449 21.7782 0.604952 21.7781 0.823393V4.33979ZM18.0475 6.90813C18.0475 5.69036 18.6192 4.54327 19.5917 3.81021V2H16V3C16 3.55229 15.5523 4 15 4C14.4477 4 14 3.55229 14 3V2H2V3.90189C2.9725 4.63494 3.54422 5.78204 3.54422 6.9998C3.54422 8.21757 2.9725 9.36466 2 10.0977V12H13.726H14V11C14 10.4477 14.4477 10 15 10C15.5523 10 16 10.4477 16 11V12H19.5917V10.006C18.6192 9.27299 18.0475 8.12589 18.0475 6.90813ZM15 5C14.4477 5 14 5.44772 14 6V8C14 8.55229 14.4477 9 15 9C15.5523 9 16 8.55229 16 8V6C16 5.44772 15.5523 5 15 5Z" fill="#444444"></path></svg>