<svg width="24" height="20" viewBox="0 0 24 20" fill="none" xmlns="http://www.w3.org/2000/svg"><path d="M4.05563 11.3869H8.76289V5.26262C8.76289 4.79152 8.53138 4.32042 8.14554 4.00635C7.45103 3.45673 6.44784 3.61377 5.98483 4.32042L2.82094 8.9529C2.51227 9.424 2.51227 10.0521 2.74377 10.6017C2.97528 11.0728 3.51545 11.3869 4.05563 11.3869ZM7.29669 5.26262L7.21952 9.81658H4.05563L7.29669 5.26262Z" fill="#444444"></path><path fill-rule="evenodd" clip-rule="evenodd" d="M8.84214 11.4676H4.05563C3.48867 11.4676 2.9192 11.1391 2.67288 10.6378L2.6708 10.6336C2.43158 10.0657 2.42786 9.40744 2.75499 8.90816L2.75584 8.90687L5.91931 4.27503C6.40939 3.52792 7.46547 3.366 8.1942 3.94269L8.19506 3.94337C8.59825 4.27156 8.84214 4.76518 8.84214 5.26262V11.4676ZM5.98483 4.32042L2.82094 8.9529C2.51227 9.424 2.51227 10.0521 2.74377 10.6017C2.97528 11.0728 3.51545 11.3869 4.05563 11.3869H8.76289V5.26262C8.76289 4.79152 8.53138 4.32042 8.14554 4.00635C7.45103 3.45673 6.44784 3.61377 5.98483 4.32042ZM7.29669 5.26262L4.05563 9.81658H7.21952L7.29669 5.26262ZM7.2131 5.51757L4.21089 9.73593H7.14162L7.2131 5.51757Z" fill="#444444"></path><path d="M17.2521 10.6019C17.5608 10.1308 17.5608 9.50264 17.2521 9.03154L12.3905 0.865811C12.0818 0.394712 11.6188 0.0806452 11.0786 0.0806452C10.2298 0.0806452 9.53528 0.787295 9.53528 1.65098V11.387H15.9402C16.4804 11.387 17.0206 11.073 17.2521 10.6019ZM11.0015 1.65098L15.9402 9.89522H11.0015V1.65098Z" fill="#444444"></path><path fill-rule="evenodd" clip-rule="evenodd" d="M9.53528 11.387V1.65098C9.53528 0.787295 10.2298 0.0806452 11.0786 0.0806452C11.6188 0.0806452 12.0818 0.394712 12.3905 0.865811L17.2521 9.03154C17.5608 9.50264 17.5608 10.1308 17.2521 10.6019C17.0206 11.073 16.4804 11.387 15.9402 11.387H9.53528ZM17.3208 10.6424C17.0733 11.1411 16.5055 11.4677 15.9402 11.4677H9.45602V1.65098C9.45602 0.742755 10.186 0 11.0786 0C11.6516 0 12.1369 0.333451 12.4564 0.821077L12.4584 0.823988L17.319 8.98828C17.6436 9.48491 17.6441 10.1452 17.3208 10.6424ZM11.0015 1.65098V9.89522H15.9402L11.0015 1.65098ZM11.0807 1.93823V9.81457H15.7991L11.0807 1.93823Z" fill="#444444"></path><path fill-rule="evenodd" clip-rule="evenodd" d="M3.72522 12.0622H21.2197C22.7552 12.0622 24 13.3287 24 14.8911C24 17.7127 21.7519 20 18.9788 20H2.93262C1.31298 20 0 18.6641 0 17.0161V15.8525C0 13.7592 1.66784 12.0622 3.72522 12.0622ZM4 14C3.12452 14 2 14.9617 2 15.8525V17.0161C2 17.4615 2.49488 18 2.93262 18L18.8014 18.1774C20.3926 18.1774 21.86 16.5101 21.86 14.8911C21.86 14.5313 21.5733 14 21.2197 14H4Z" fill="#444444"></path></svg>