<svg width="25" height="21" viewBox="0 0 25 21" fill="none" xmlns="http://www.w3.org/2000/svg"><path fill-rule="evenodd" clip-rule="evenodd" d="M11.3486 0.702817V4.66283H3.0021C2.5814 4.66283 2.19912 5.00183 2.19912 5.3655V19.6018H0.81288C0.306434 19.6018 0 19.9905 0 20.3379C0.0193155 20.7015 0.430127 21.0157 0.851051 20.9994H23.4633C23.8932 21.0075 24.2857 20.6685 24.2857 20.2967C24.2857 19.9331 23.8937 19.5941 23.4633 19.6023H22.1247V0.702869C22.1247 0.330869 21.7327 0.000205102 21.3118 0.000205102L12.1621 6.8807e-07C11.6552 -0.000609809 11.358 0.405161 11.3486 0.702817ZM12.9645 1.39708H20.509V19.6023H19.1609V14.6997C19.1609 14.336 18.7784 13.997 18.3485 13.997H15.1454C14.6384 13.997 14.3228 14.402 14.3134 14.6997V19.6021H12.9653L12.9645 1.39708ZM3.81455 6.06832H11.3488V19.6022H10.0007V15.6334C10.0007 15.2616 9.61839 14.9309 9.1977 14.9309H5.96585C5.44008 14.9309 5.16286 15.3359 5.15297 15.6334V19.6019H3.81431L3.81455 6.06832ZM15.929 15.4021H17.545V19.6019H15.929V15.4021ZM6.76968 16.3278H8.38561V19.6019H6.76968V16.3278ZM16.1909 7.07129C16.1909 6.519 16.6387 6.07129 17.1909 6.07129H18.564C19.1162 6.07129 19.564 6.519 19.564 7.07129V8.4443C19.564 8.99658 19.1162 9.4443 18.564 9.4443H17.1909C16.6387 9.4443 16.1909 8.99658 16.1909 8.4443V7.07129ZM4.72272 11.4562C4.72272 10.9039 5.17043 10.4562 5.72272 10.4562H7.09573C7.64801 10.4562 8.09573 10.9039 8.09573 11.4562V12.8292C8.09573 13.3815 7.64801 13.8292 7.09573 13.8292H5.72272C5.17043 13.8292 4.72272 13.3815 4.72272 12.8292V11.4562ZM15.167 2.69824C14.6147 2.69824 14.167 3.14596 14.167 3.69824V4.39665C14.167 4.94893 14.6147 5.39665 15.167 5.39665H15.8654C16.4177 5.39665 16.8654 4.94894 16.8654 4.39665V3.69824C16.8654 3.14596 16.4177 2.69824 15.8654 2.69824H15.167ZM8.7583 7.08315C8.20602 7.08315 7.7583 7.53087 7.7583 8.08315V8.78156C7.7583 9.33385 8.20602 9.78156 8.7583 9.78156H9.45671C10.009 9.78156 10.4567 9.33385 10.4567 8.78156V8.08315C10.4567 7.53087 10.009 7.08315 9.45671 7.08315H8.7583Z" fill="#444444"></path></svg>