<svg width="22" height="23" viewBox="0 0 20 23" fill="none" xmlns="http://www.w3.org/2000/svg"><path fill-rule="evenodd" clip-rule="evenodd" d="M19.9431 0.645841C20.0964 1.0742 19.932 1.55144 19.5473 1.7951C19.1755 2.03062 18.8211 2.24993 18.4815 2.46011C17.8983 2.82104 17.3587 3.15502 16.8489 3.49785C16.0541 4.03235 15.4318 4.52516 14.9862 5.04254C14.5536 5.54495 14.2983 6.05806 14.2176 6.65244C14.1353 7.25918 14.2233 8.03652 14.6257 9.07769C16.049 12.7612 16.6195 14.0934 16.7111 14.2759C16.7212 14.2959 16.7305 14.3162 16.7392 14.3369C17.0449 15.0673 17.4345 16.1222 17.5998 17.2081C17.7606 18.2639 17.7415 19.5612 16.9727 20.5815C16.2421 21.551 15.1777 21.9896 14.1775 22.1468C13.1804 22.3035 12.1612 22.1977 11.357 21.9976C11.3329 21.9916 11.3089 21.9847 11.2853 21.9769C9.65237 21.4351 8.6111 20.9694 7.78156 20.4837C7.13676 20.1062 6.62576 19.7171 6.10984 19.3244C5.97443 19.2213 5.83869 19.118 5.7001 19.0145C5.36387 18.7635 5.22637 18.3257 5.35883 17.928C5.49129 17.5302 5.86394 17.2618 6.28376 17.2618C6.82277 17.2618 7.23967 17.2616 7.57173 17.2463C7.63407 17.2434 7.69043 17.2401 7.74131 17.2365C7.44949 16.5583 6.9516 16.0466 6.30347 15.4015C6.20211 15.3006 5.92122 15.0824 5.46448 14.7812C5.02877 14.4938 4.48661 14.1656 3.90916 13.8462C2.71804 13.1876 1.50684 12.64 0.784241 12.4961C0.277447 12.3953 -0.0624105 11.917 0.00961729 11.406C0.081645 10.8951 0.540522 10.5291 1.05552 10.5718C3.16059 10.7464 4.74418 10.8986 6.0746 11.2564C6.58794 11.3945 7.06176 11.5624 7.51488 11.7699C7.26693 10.0379 7.3873 8.03914 8.27895 6.15452C9.69154 3.16884 12.9083 0.735365 18.9076 0.00716256C19.3598 -0.0477322 19.7898 0.217481 19.9431 0.645841ZM7.87398 17.6272C7.87397 17.6272 7.87392 17.6267 7.87384 17.6258L7.87398 17.6272ZM10.0416 6.98593C8.96425 9.26306 9.30597 11.8614 9.99723 13.5895C10.1633 14.0046 10.0247 14.4794 9.66124 14.7405C9.29775 15.0016 8.80286 14.9818 8.46143 14.6925C8.27827 14.5374 8.09979 14.3958 7.92351 14.2661C8.56557 14.9117 9.29863 15.7138 9.68567 16.8696C9.79023 17.1818 9.90086 17.6369 9.74651 18.0978C9.60144 18.531 9.29372 18.7852 8.99215 18.9319C9.63726 19.2862 10.498 19.6629 11.8634 20.1175C12.4684 20.2637 13.2033 20.3294 13.8744 20.224C14.5554 20.117 15.0836 19.8509 15.4149 19.4113C15.7078 19.0226 15.8068 18.3823 15.6725 17.5006C15.5445 16.6594 15.2325 15.7881 14.9511 15.1128C14.7792 14.7543 14.164 13.2905 12.8069 9.77834C12.3244 8.52969 12.147 7.41352 12.2859 6.39097C12.4264 5.35605 12.879 4.50407 13.5081 3.7735C13.6387 3.62183 13.7773 3.47499 13.9226 3.33236C11.8516 4.31753 10.6765 5.64392 10.0416 6.98593Z" fill="#444444"></path></svg>